<svg xmlns="http://www.w3.org/2000/svg" viewBox="0 0 2055.3 645.45"><defs><style>.cls-1,.cls-2{fill:#fcfcfc;}.cls-1{stroke:#fcfcfc;stroke-miterlimit:10;}</style></defs><g id="Layer_2" data-name="Layer 2"><g id="Layer_1-2" data-name="Layer 1"><path class="cls-1" d="M251.17,20.06V65.39h53.38c3.1-.16,12.74-1.47,13.49-11.66V96.6c-.72-9.86-9.72-11.42-13.13-11.66H251.17v61.45h87v19.54h-109V.5h109V20.06Z"/><path class="cls-1" d="M464.55.5H435.22L375,165.93h22.33L411.73,125l1.82-5.17,6.68-18.89h0l.89-2.46.38-1.06h55.59l.37,1,.88,2.48,6.75,18.89h0l2.65,7.52,13.58,38.58h23.43Zm-34.4,72.74L445.9,29.31h6.85l15.69,43.93Z"/><path class="cls-1" d="M1397.8.5v31s-3.89-8.49-11.29-11.46h-72.37V66.72h47.39c7.43-2.94,11.35-11.48,11.35-11.48v31h-58.74v79.66h-22V.5Z"/><polygon class="cls-1" points="492.33 261.24 492.33 426.68 460.71 426.68 386.66 285.61 386.66 426.68 366.11 426.68 366.11 261.24 400.22 261.24 471.77 396.34 471.77 261.24 492.33 261.24"/><path class="cls-1" d="M1794.31,311.74q-4.29,12.72-4.27,29.39,0,17.44,4.71,30t12.17,20.45a48.35,48.35,0,0,0,18.16,12.16,61.31,61.31,0,0,0,22,3.94,80.82,80.82,0,0,0,29.77-5.44q3.39-1.32,6.67-3c.09-.05.2-.09.3-.15a49.92,49.92,0,0,0,20.58-31.22v43.8q-6.11,2.65-11,5a108.21,108.21,0,0,1-12.94,4.88,130.55,130.55,0,0,1-14.72,3.61,94.5,94.5,0,0,1-17.5,1.5,100.56,100.56,0,0,1-32.72-5.05,66.81,66.81,0,0,1-25.61-15.83q-10.66-10.56-16.67-26.84t-6-37.82q0-20.44,5.78-36.56a74.15,74.15,0,0,1,16.66-27.22,69.76,69.76,0,0,1,25.51-16.44,92.8,92.8,0,0,1,33.17-5.66,112.83,112.83,0,0,1,26.6,3.21q13.28,3.23,29.49,11.33v45.53S1900,284.8,1866,276.24l-.08,0A81.55,81.55,0,0,0,1846.8,274a60,60,0,0,0-22.6,4.05,49.58,49.58,0,0,0-18,12.62A57.76,57.76,0,0,0,1794.31,311.74Z"/><path class="cls-1" d="M2054.8,376.45a44,44,0,0,1-4.5,19.11,45.49,45.49,0,0,1-12.6,16A67.54,67.54,0,0,1,2017,422.67q-11.84,4-28.5,4a141.45,141.45,0,0,1-32.16-3.33,163.09,163.09,0,0,1-29.06-9.89V366.94A49.88,49.88,0,0,0,1947,397.56a96,96,0,0,0,10.81,4.45,94.91,94.91,0,0,0,30.89,5.66q20.44,0,31.83-7.66t11.39-20.44q0-11-5.4-16.23t-16.38-8.11a165.71,165.71,0,0,0-18.06-3.67q-9.72-1.43-20.61-3.65-22-4.7-32.6-16t-10.62-29.37q0-20.79,17.56-34.06t44.56-13.27a143.58,143.58,0,0,1,32,3.32,147.2,147.2,0,0,1,25.77,8.23v23.78l0,0V310a49.71,49.71,0,0,0-13-24.85,97.89,97.89,0,0,0-13.37-5.67,96.58,96.58,0,0,0-31.49-5.27q-17.65,0-28.39,7.33t-10.71,18.89q0,10.34,5.32,16.22t18.78,9q7.11,1.56,20.23,3.77t22.21,4.56q18.45,4.9,27.77,14.78T2054.8,376.45Z"/><path class="cls-1" d="M505.2,568.79V645H97.52V95.26A134.39,134.39,0,0,0,69,41.62,136.38,136.38,0,0,0,3.59.5H183.23V568.79H401.06s84.09-8.95,103.72-95.18Z"/><path class="cls-1" d="M698.73,85.73v.72c-9.74,3.47-22.57,18.1-23,18.59v51.67a208.79,208.79,0,0,1-29.61,10.83,113.87,113.87,0,0,1-66.5-.71,72.88,72.88,0,0,1-27.44-16,71.73,71.73,0,0,1-17.66-27q-6.24-16.17-6.23-37.82,0-39.68,23.17-62.62T615.07.5A127.56,127.56,0,0,1,643.9,3.9a155.07,155.07,0,0,1,31.73,11.49V53.12s-15.54-22.29-29.32-27.66a.27.27,0,0,0-.11-.05,102.71,102.71,0,0,0-12.85-3.85,97,97,0,0,0-22.05-2.27q-27.76,0-43.94,17.82T551.2,85.39q0,32.11,16.88,49.94t46,17.83A107.85,107.85,0,0,0,635.35,151,97.25,97.25,0,0,0,654,145.6V105.05s-12.68-15-23-18.57v-.75Z"/><path class="cls-1" d="M840.64.5v99q0,18-3.94,31.39a50.79,50.79,0,0,1-13,22.26,51.76,51.76,0,0,1-20,12.34q-11.44,3.88-26.66,3.89-15.55,0-27.11-4.11a50.77,50.77,0,0,1-19.45-12.12,52.81,52.81,0,0,1-12.94-22q-3.95-12.89-3.94-31.66V.5h33.88a45.75,45.75,0,0,0-11.89,24.18V100.6q0,13.44,1.84,21.22a41.41,41.41,0,0,0,6.17,14.12,30.36,30.36,0,0,0,13.27,10.89q8.4,3.66,20.17,3.67t20.22-3.61a30.46,30.46,0,0,0,13.33-10.95,41.33,41.33,0,0,0,6.16-14.5,94,94,0,0,0,1.84-20.28V24.4A45.94,45.94,0,0,0,806.8.5Z"/><path class="cls-1" d="M908.28,20.06V65.39h53.39c3.09-.16,12.73-1.47,13.48-11.66V96.6c-.71-9.86-9.72-11.42-13.13-11.66H908.28v61.45h87v19.54h-109V.5h109V20.06Z"/><path class="cls-2" d="M1177,6v.18l1.29,0Z"/><path class="cls-2" d="M797.44,272.55c.95-.13,1.92-.23,2.9-.29v-.21C799.36,272.19,798.39,272.35,797.44,272.55Z"/><path class="cls-2" d="M808.14,272.05v.12l1.25.08C809,272.17,808.56,272.11,808.14,272.05Z"/><path class="cls-1" d="M638.33,261.24v31s-3.89-8.5-11.29-11.46H554.67v46.66h47.39c7.43-2.94,11.35-11.48,11.35-11.48v31H554.67v79.66h-22V261.24Z"/><path class="cls-1" d="M797.68,308a73.22,73.22,0,0,0-14.74-26.35,63.1,63.1,0,0,0-22.85-16.07,74.77,74.77,0,0,0-24.89-5.49l-1.51-.08c-1.3-.06-2.62-.08-4-.08-1.84,0-3.66.06-5.46.17-1.18.06-2.35.15-3.5.28a76.31,76.31,0,0,0-21.08,5.14,60.86,60.86,0,0,0-23.08,16.13,75.35,75.35,0,0,0-14.78,26.61q-5.07,15.55-5.07,35.11,0,19.91,5.12,35.39a73.16,73.16,0,0,0,14.63,26.13,62.15,62.15,0,0,0,23.07,16.23,78.53,78.53,0,0,0,30.15,5.59q17,0,30.25-5.48a62.38,62.38,0,0,0,23-16.34q9.4-10.44,14.63-26.09t5.23-35.43Q802.8,323.54,797.68,308Zm-36.81,83a44.65,44.65,0,0,1-27.18,15.86,22.23,22.23,0,0,1-9.42,0A44.59,44.59,0,0,1,697.09,391q-13.94-16.72-13.94-48.23,0-31.19,13.67-48.12a43.86,43.86,0,0,1,27.33-16.07c1.84-.17,3.74-.25,5.68-.25,1.31,0,2.59,0,3.86.12v.11a43.84,43.84,0,0,1,27.45,16.09q13.68,16.93,13.66,48.12Q774.8,374.24,760.87,391Z"/><path class="cls-1" d="M973.78,342.63v71a209.11,209.11,0,0,1-29.6,10.83,113.87,113.87,0,0,1-66.5-.71,72.92,72.92,0,0,1-27.45-16,71.71,71.71,0,0,1-17.65-27q-6.24-16.17-6.23-37.82,0-39.68,23.17-62.62t63.6-22.94A127.69,127.69,0,0,1,942,260.8a155,155,0,0,1,31.72,11.49V310s-15.53-22.29-29.31-27.66a.34.34,0,0,0-.11-.05,102.37,102.37,0,0,0-12.86-3.85,97,97,0,0,0-22-2.27q-27.76,0-43.93,17.82t-16.17,48.28q0,32.11,16.88,49.94t46,17.83a107.92,107.92,0,0,0,21.28-2.12A97.14,97.14,0,0,0,952,402.5V362s-12.67-15-23-18.57v-.75Z"/><path class="cls-1" d="M1258.3,261.24H1229l-60.22,165.43h22.32l14.4-40.93,1.83-5.17,6.67-18.9h0l.88-2.45.38-1.06h55.6l.37,1,.88,2.47,6.74,18.9h0l2.64,7.52,13.58,38.58h23.43ZM1223.89,334,1239.64,290h6.85L1262.18,334Z"/><path class="cls-1" d="M322.72,409.78v16.89H229.17V396.12a20.92,20.92,0,0,0,14.11,13.66H265V278.13H229.26V261.24h93.21v31a20.92,20.92,0,0,0-13.55-14.08H287V409.78Z"/><path class="cls-1" d="M1088.05,354.35q15.77-6.11,24.77-18.17t9-29.95q0-13.22-5.06-21.82a41.74,41.74,0,0,0-14-14.28,52.81,52.81,0,0,0-18-6.95,134.92,134.92,0,0,0-25-1.94H994.43s15.9,11.34,19,31V426.67h22V360.9h31l55.33,65.77h28.55Zm-30.45-11.78h-22.22V280.13h25.89a81,81,0,0,1,15.44,1.28,30.12,30.12,0,0,1,11.34,4.5,21.93,21.93,0,0,1,8.27,9.27,30.13,30.13,0,0,1,2.5,12.61q0,9.33-2.38,15.4a29.56,29.56,0,0,1-7.39,10.72,29.09,29.09,0,0,1-13.22,6.82A79.75,79.75,0,0,1,1057.6,342.57Z"/><path class="cls-1" d="M1450.32,287.35a44.75,44.75,0,0,0-14.62-15.78,56.86,56.86,0,0,0-18.33-7.83q-10.33-2.5-25.22-2.5h-63.82s15.87,11.32,18.94,30.89V426.67h22V365h22q17.76,0,29.43-4.27a55.12,55.12,0,0,0,20.22-12.83,48.68,48.68,0,0,0,10.72-16.29,53.31,53.31,0,0,0,3.84-20.38Q1455.48,296.8,1450.32,287.35ZM1430.43,325a31.89,31.89,0,0,1-7.39,11.22,30.52,30.52,0,0,1-13.56,7.61q-8.32,2.4-21.66,2.4h-18.56V280.13H1391a82.54,82.54,0,0,1,17.27,1.5,36.48,36.48,0,0,1,12.17,4.94,24.91,24.91,0,0,1,9.11,10.34,34.41,34.41,0,0,1,3,14.89A38.13,38.13,0,0,1,1430.43,325Z"/><path class="cls-1" d="M1262.93,48.57a73.37,73.37,0,0,0-14.74-26.35,63.18,63.18,0,0,0-22.85-16.07A74.77,74.77,0,0,0,1200.45.66l-1.51-.08c-1.3-.06-2.62-.08-4-.08-1.84,0-3.67.06-5.46.17-1.18.06-2.35.15-3.5.28a76.31,76.31,0,0,0-21.08,5.14,60.86,60.86,0,0,0-23.08,16.13,75.37,75.37,0,0,0-14.79,26.61Q1122,64.39,1122,83.94q0,19.91,5.12,35.39a73,73,0,0,0,14.63,26.12,62.21,62.21,0,0,0,23.06,16.24,78.62,78.62,0,0,0,30.16,5.59q17,0,30.24-5.48a62.24,62.24,0,0,0,23-16.35q9.4-10.42,14.63-26.08t5.23-35.43Q1268.05,64.16,1262.93,48.57Zm-36.81,83a44.63,44.63,0,0,1-27.18,15.85,22,22,0,0,1-9.42,0,44.58,44.58,0,0,1-27.18-15.85q-13.93-16.73-13.94-48.23,0-31.18,13.66-48.12a43.91,43.91,0,0,1,27.34-16.07c1.84-.17,3.74-.25,5.68-.25,1.31,0,2.59,0,3.86.12v.11a43.87,43.87,0,0,1,27.45,16.09q13.68,16.93,13.66,48.12Q1240.05,114.85,1226.12,131.56Z"/><path class="cls-1" d="M1617.87,261.24V426.67h-38.75a52.67,52.67,0,0,0,16.75-22.51V345.68h-82.55v81h-22V279.31a52.94,52.94,0,0,0-14.82-18.07h36.82v64.89h82.55V261.24Z"/><path class="cls-1" d="M1745.24,409.78v16.89h-93.55V396.12a20.92,20.92,0,0,0,14.12,13.66h21.67V278.13h-35.69V261.24H1745v31a20.91,20.91,0,0,0-13.54-14.08h-22V409.78Z"/></g></g></svg>