<?xml version="1.0" encoding="utf-8"?>
<!-- Generator: Adobe Illustrator 25.1.0, SVG Export Plug-In . SVG Version: 6.00 Build 0)  -->
<svg version="1.1" id="Layer_1" xmlns="http://www.w3.org/2000/svg" xmlns:xlink="http://www.w3.org/1999/xlink" x="0px" y="0px"
	 viewBox="0 0 2000 2000" style="enable-background:new 0 0 2000 2000;" xml:space="preserve">
<style type="text/css">
	.st0{fill:#DD823E;}
	.st1{fill:#E26C0C;}
	.st2{fill:#B5540B;}
	.st3{fill:#727272;}
</style>
<g>
	<g>
		<polygon class="st0" points="1393.3,798.01 1325.5,915.4 1364.94,983.67 1180.87,1302.45 1102.03,1302.45 1034.23,1419.84 
			1248.68,1419.84 1500.45,983.67 		"/>
		<polygon class="st1" points="812.83,664.88 1180.87,664.88 1215.67,725.13 1351.23,725.13 1248.68,547.49 745.03,547.49 
			642.47,725.13 778.04,725.13 		"/>
		<polygon class="st2" points="812.83,1302.45 628.76,983.67 668.16,915.44 600.35,798.05 493.2,983.67 745.03,1419.84 
			959.38,1419.84 891.58,1302.45 		"/>
		<polygon class="st3" points="628.76,983.67 493.2,983.67 600.35,798.05 668.16,915.44 		"/>
		<polygon class="st3" points="1248.68,547.49 1180.87,664.88 1215.67,725.13 1351.23,725.13 		"/>
		<polygon class="st3" points="1034.23,1419.84 1102.03,1302.45 1180.87,1302.45 1248.68,1419.84 		"/>
	</g>
	<polygon class="st3" points="737.11,824.48 946.16,824.48 946.16,1186.56 	"/>
	<polygon class="st3" points="1256.54,824.48 1047.54,1186.46 1047.54,824.48 	"/>
</g>
</svg>
