<svg xmlns="http://www.w3.org/2000/svg" viewBox="0 0 1968.45 1704.81">
<defs>
<style>.cls-1{fill:#dd823e;}.cls-2{fill:#e26c0c;}.cls-3{fill:#b5540b;}.cls-4{fill:#727272;}</style>
</defs>
<g id="Layer_2" data-name="Layer 2">
<g id="Layer_1-2" data-name="Layer 1">
<polygon class="cls-1" points="1759.05 489.59 1626.55 719 1703.62 852.42 1343.9 1475.4 1189.82 1475.4 1057.32 1704.82 1476.42 1704.82 1968.45 852.42 1759.05 489.59"/>
<polygon class="cls-2" points="624.65 229.41 1343.9 229.41 1411.91 347.16 1676.83 347.16 1476.42 0 492.15 0 291.71 347.16 556.66 347.16 624.65 229.41"/>
<polygon class="cls-3" points="624.65 1475.4 264.92 852.42 341.92 719.08 209.4 489.66 0 852.42 492.15 1704.82 911.05 1704.82 778.55 1475.4 624.65 1475.4"/>
<polygon class="cls-4" points="264.92 852.42 0 852.42 209.4 489.66 341.92 719.08 264.92 852.42"/><polygon class="cls-4" points="1476.42 0 1343.9 229.41 1411.91 347.16 1676.83 347.16 1476.42 0"/>
<polygon class="cls-4" points="1057.32 1704.82 1189.82 1475.4 1343.9 1475.4 1476.42 1704.82 1057.32 1704.82"/>
<polygon class="cls-4" points="476.67 541.32 885.21 541.32 885.21 1248.92 476.67 541.32"/>
<polygon class="cls-4" points="1491.78 541.32 1083.34 1248.72 1083.34 541.32 1491.78 541.32"/>
</g>
</g>
</svg>